<svg width="20" height="15" viewBox="0 0 20 15" fill="none" xmlns="http://www.w3.org/2000/svg">
  <path d="M20 9C20 11.8284 19.9998 13.2424 19.1211 14.1211C18.2424 14.9998 16.8284 15 14 15H6C3.17157 15 1.75759 14.9998 0.878906 14.1211C0.000226796 13.2424 0 11.8284 0 9V7H20V9ZM5 10C4.44772 10 4 10.4477 4 11C4 11.5523 4.44772 12 5 12H5.00977C5.56205 12 6.00977 11.5523 6.00977 11C6.00977 10.4477 5.56205 10 5.00977 10H5ZM14 0C16.8284 0 18.2424 0.000226796 19.1211 0.878906C19.8895 1.64729 19.9859 2.82497 19.998 5H0.00195312C0.0140601 2.82497 0.110523 1.64729 0.878906 0.878906C1.75759 0.000226617 3.17157 0 6 0H14Z" fill="#FDBC2F" />
</svg>