<svg width="20" height="19" viewBox="0 0 20 19" fill="none" xmlns="http://www.w3.org/2000/svg">
  <path d="M7.84799 3.34569C8.75993 1.11523 9.21591 0 10 0C10.7841 0 11.2401 1.11523 12.152 3.34569L12.1945 3.44955C12.7097 4.70965 12.9673 5.3397 13.4923 5.72265C14.0173 6.1056 14.7065 6.16616 16.0848 6.28726L16.334 6.30916C18.5899 6.50737 19.7178 6.60647 19.9592 7.31051C20.2005 8.01455 19.3629 8.76221 17.6876 10.2576L17.1284 10.7566C16.2804 11.5136 15.8563 11.8921 15.6587 12.3881C15.6218 12.4807 15.5912 12.5755 15.567 12.6719C15.437 13.1891 15.5612 13.7381 15.8096 14.8363L15.8869 15.1781C16.3433 17.1962 16.5715 18.2053 16.173 18.6405C16.0241 18.8032 15.8306 18.9203 15.6157 18.9778C15.0404 19.1318 14.2237 18.4789 12.5902 17.173C11.5176 16.3156 10.9813 15.8868 10.3656 15.7904C10.1234 15.7524 9.8766 15.7524 9.63441 15.7904C9.01868 15.8868 8.48238 16.3156 7.40979 17.173C5.77633 18.4789 4.95961 19.1318 4.38434 18.9778C4.16938 18.9203 3.97587 18.8032 3.82698 18.6405C3.42854 18.2053 3.65674 17.1962 4.11314 15.1781L4.19045 14.8363C4.43879 13.7381 4.56296 13.1891 4.43305 12.6719C4.40881 12.5755 4.37817 12.4807 4.3413 12.3881C4.14366 11.8921 3.71963 11.5136 2.87156 10.7566L2.31243 10.2576C0.637133 8.76221 -0.200517 8.01455 0.0408329 7.31051C0.282183 6.60647 1.41011 6.50737 3.66598 6.30916L3.91516 6.28726C5.29352 6.16616 5.98271 6.1056 6.50771 5.72265C7.03272 5.3397 7.29032 4.70965 7.80553 3.44955L7.84799 3.34569Z" fill="#FDBC2F" />
</svg>