<svg width="22" height="18" viewBox="0 0 22 18" fill="none" xmlns="http://www.w3.org/2000/svg">
  <path d="M20.9116 5.79151H20.0779L18.7347 1.57529C18.4337 0.625483 17.5537 0 16.5811 0H5.44211C4.44632 0 3.58947 0.625483 3.28842 1.57529L1.92211 5.79151H1.08842C0.486316 5.79151 0 6.27799 0 6.88031V7.50579C0 8.10811 0.486316 8.59459 1.08842 8.59459H1.55158V16.9112C1.55158 17.5135 2.03789 18 2.64 18H4.44632C5.04842 18 5.53474 17.5135 5.53474 16.9112V15.2432H16.4653V16.9112C16.4653 17.5135 16.9516 18 17.5537 18H19.36C19.9621 18 20.4484 17.5135 20.4484 16.9112V8.57143H20.9116C21.5137 8.57143 22 8.08494 22 7.48263V6.85714C22 6.27799 21.5137 5.79151 20.9116 5.79151ZM5.76632 12.7181C4.93263 12.7181 4.26105 12.0463 4.26105 11.2124C4.26105 10.3784 4.93263 9.70656 5.76632 9.70656C6.6 9.70656 7.27158 10.3784 7.27158 11.2124C7.27158 12.0463 6.6 12.7181 5.76632 12.7181ZM16.28 12.7181C15.4463 12.7181 14.7747 12.0463 14.7747 11.2124C14.7747 10.3784 15.4463 9.70656 16.28 9.70656C17.1137 9.70656 17.7853 10.3784 17.7853 11.2124C17.7853 12.0463 17.1137 12.7181 16.28 12.7181ZM3.75158 7.20463L5.34947 2.22394C5.37263 2.17761 5.39579 2.15444 5.44211 2.15444H16.5579C16.6042 2.15444 16.6505 2.17761 16.6505 2.22394L18.2484 7.20463H3.75158Z" fill="#FDBC2F" />
</svg>