<svg width="24" height="14" viewBox="0 0 24 14" fill="none" xmlns="http://www.w3.org/2000/svg">
  <path fill-rule="evenodd" clip-rule="evenodd" d="M1.18019 6.80161C0.46146 8.2943 0.0416793 9.95782 0 11.7151H2.24581C2.2906 10.3724 2.6458 9.10789 3.24163 7.99119L1.17915 6.80059L1.18019 6.80161ZM4.86147 2.35368L6.25625 4.76822C5.15315 5.45675 4.21879 6.39111 3.53016 7.49432L1.4427 6.28913C2.2833 4.7402 3.45413 3.39638 4.86238 2.35373L4.86147 2.35368ZM10.4771 0.0953644C8.59069 0.333902 6.84171 1.01098 5.33346 2.02035L6.75323 4.4797C7.86884 3.88283 9.1334 3.52763 10.4772 3.48283V0.0943512L10.4771 0.0953644ZM16.7906 0.99431C15.0188 0.222456 13.0563 -0.119219 11.0531 0.0370454V3.48392C12.3666 3.52767 13.6374 3.87349 14.777 4.48079L16.7906 0.993377L16.7906 0.99431ZM18.2875 7.99207C18.8958 9.13058 19.2406 10.3993 19.2843 11.716H24C23.9479 9.5202 23.3062 7.46914 22.2271 5.71717L18.2866 7.99212L18.2875 7.99207ZM17.4886 6.76398L18.9667 5.52128C19.7427 4.86817 19.3396 3.59944 18.3313 3.51192C18.0407 3.48693 17.7084 3.58067 17.4802 3.79109L15.85 5.1619C15.6636 5.02336 15.4719 4.89212 15.274 4.76814L17.3125 1.237C19.1656 2.15365 20.7519 3.53488 21.9146 5.2348L18 7.4952C17.8416 7.24207 17.6719 6.99835 17.4886 6.76398ZM16.8875 6.52128L11.0531 11.2957C11.0416 10.879 10.8074 10.5884 10.4772 10.3623L17.8689 4.21392C17.9866 4.11497 18.1366 4.0733 18.2824 4.0858C18.4553 4.10038 18.5699 4.1733 18.6824 4.30142C18.8605 4.50558 18.8272 4.89725 18.6157 5.06808C18.6022 5.07849 18.5887 5.08891 18.5772 5.10141L16.8875 6.52128Z" fill="white" />
  <circle cx="10.8016" cy="10.7642" r="2.26663" fill="white" />
</svg>