<svg width="20" height="22" viewBox="0 0 20 22" fill="none" xmlns="http://www.w3.org/2000/svg">
  <path fill-rule="evenodd" clip-rule="evenodd" d="M15.2941 18.6441H16.2745C16.599 18.6441 16.8627 18.8948 16.8627 19.2034V21.4407C16.8627 21.7492 16.599 22 16.2745 22H0.588247C0.26373 22 0 21.7492 0 21.4407V19.2034C0 18.8948 0.26373 18.6441 0.588247 18.6441H1.56863V2.42373C1.56863 1.78052 1.83725 1.16434 2.31569 0.710345C2.79313 0.255443 3.44217 0 4.11765 0H12.7451C13.4216 0 14.0696 0.25542 14.5471 0.710345C15.0255 1.16432 15.2941 1.78145 15.2941 2.42373V13.4237H15.8951C16.8627 13.4237 17.6471 14.1695 17.6471 15.0896V16.6054C17.6471 16.9074 17.9049 17.1526 18.2226 17.1526H18.248C18.5657 17.1526 18.8235 16.9074 18.8235 16.6054V7.83045H18.3441L18.1255 7.80994L17.9196 7.74842L17.7343 7.65333L17.5735 7.52749L17.4412 7.37461L17.3402 7.19842L17.2765 7.00266L17.2549 6.79478V3.77451L15.8588 2.44613C15.6294 2.228 15.6294 1.87377 15.8588 1.65563C16.0882 1.43748 16.4608 1.43749 16.6902 1.65563L19.8275 4.63867C19.9382 4.74307 20 4.88571 20 5.03391V16.6052C20 17.5253 19.2157 18.2711 18.248 18.2711H18.2225C17.2549 18.2711 16.4706 17.5253 16.4706 16.6052V15.0895C16.4706 14.7874 16.2127 14.5423 15.8951 14.5423H15.2941L15.2941 18.6441ZM18.4314 4.89321V6.71193H18.8235V5.26609L18.4314 4.89321ZM4.50976 9.32218C4.18524 9.32218 3.92151 9.07142 3.92151 8.76285C3.92151 8.45429 4.18524 8.20352 4.50976 8.20352H6.07838C6.4029 8.20352 6.66663 8.45429 6.66663 8.76285C6.66663 9.07142 6.4029 9.32218 6.07838 9.32218H4.50976ZM10.7843 9.32218C10.4597 9.32218 10.196 9.07142 10.196 8.76285C10.196 8.45429 10.4597 8.20352 10.7843 8.20352H12.3529C12.6774 8.20352 12.9411 8.45429 12.9411 8.76285C12.9411 9.07142 12.6774 9.32218 12.3529 9.32218H10.7843ZM12.9411 2.79673V6.93766C12.9411 7.24623 12.6774 7.49699 12.3529 7.49699H4.50976C4.18524 7.49699 3.92151 7.24623 3.92151 6.93766V2.79673C3.92151 2.48816 4.18524 2.2374 4.50976 2.2374H12.3529C12.6774 2.2374 12.9411 2.48816 12.9411 2.79673Z" fill="white" />
</svg>