<svg width="20" height="10" viewBox="0 0 20 10" fill="none" xmlns="http://www.w3.org/2000/svg">
  <path d="M19 0C19.4714 0 19.7071 3.77671e-05 19.8535 0.146484C20 0.292931 20 0.528596 20 1V6C20 7.88562 19.9998 8.82828 19.4141 9.41406C18.8283 9.99985 17.8856 10 16 10H4C2.11438 10 1.17172 9.99985 0.585938 9.41406C0.000151062 8.82828 0 7.88562 0 6V1C0 0.528596 3.77671e-05 0.292931 0.146484 0.146484C0.292931 3.77903e-05 0.528596 0 1 0H19ZM6 4C5.44772 4 5 4.44772 5 5C5 5.55228 5.44772 6 6 6H14C14.5523 6 15 5.55228 15 5C15 4.44772 14.5523 4 14 4H6Z" fill="#FDBC2F" />
</svg>