<svg viewBox="0 0 40 40" fill="none" xmlns="http://www.w3.org/2000/svg">
  <circle cx="20" cy="20" r="19.5" stroke="white" stroke-opacity="0.1" />
  <path fill-rule="evenodd" clip-rule="evenodd" d="M10.3062 19.8879C15.4064 17.6299 18.8074 16.1413 20.5091 15.4221C25.3677 13.3686 26.3773 13.0119 27.0354 13.0001C27.1801 12.9975 27.5037 13.034 27.7133 13.2068C27.8903 13.3528 27.939 13.5499 27.9623 13.6883C27.9856 13.8266 28.0146 14.1418 27.9916 14.3881C27.7283 17.1992 26.589 24.021 26.0094 27.1694C25.7642 28.5017 25.2813 28.9484 24.8138 28.9921C23.7978 29.0871 23.0263 28.3098 22.0422 27.6543C20.5024 26.6287 19.6325 25.9902 18.1378 24.9893C16.4105 23.8327 17.5303 23.1969 18.5147 22.158C18.7723 21.8861 23.2488 17.7487 23.3354 17.3733C23.3463 17.3264 23.3563 17.1514 23.254 17.059C23.1517 16.9666 23.0007 16.9982 22.8918 17.0234C22.7373 17.059 20.2775 18.7111 15.5121 21.9798C14.8139 22.467 14.1815 22.7044 13.6148 22.6919C12.9901 22.6782 11.7885 22.333 10.8952 22.038C9.79958 21.6761 8.92878 21.4847 9.0046 20.8701C9.0441 20.55 9.47795 20.2226 10.3062 19.8879Z" fill="white" />
</svg>