<svg width="95" height="44" viewBox="0 0 95 44" fill="none" xmlns="http://www.w3.org/2000/svg">
  <circle cx="73" cy="22" r="21.5" stroke="white" stroke-opacity="0.1" />
  <circle cx="22" cy="22" r="21.5" stroke="white" stroke-opacity="0.1" />
  <path d="M62.0755 21.906C62.0755 23.8239 62.566 25.7043 63.5472 27.359L62 33L67.8113 31.4957C69.3962 32.3607 71.2075 32.812 73.0566 32.812C79.0943 32.812 84 27.9231 84 21.906C84 19.0103 82.8679 16.265 80.7925 14.1966C78.717 12.1282 76 11 73.0566 11C66.9811 11.0376 62.0755 15.9265 62.0755 21.906ZM65.5472 27.0957L65.3208 26.7573C64.4151 25.3282 63.9245 23.6359 63.9245 21.9436C63.9245 16.9419 68 12.8803 73.0189 12.8803C75.434 12.8803 77.7358 13.8205 79.434 15.5504C81.1321 17.2803 82.1132 19.5368 82.1132 21.9436C82.1132 26.9453 78.0377 31.0068 73.0189 31.0068C71.3962 31.0068 69.7736 30.5556 68.3774 29.7282L68.0377 29.5402L64.6038 30.4427L65.5472 27.0957Z" fill="white" />
  <path d="M70.5332 17.0255C70.3283 16.5404 70.0824 16.5404 69.8774 16.5C69.7134 16.5 69.5085 16.5 69.3035 16.5C69.0986 16.5 68.7707 16.5808 68.5247 16.8638C68.2378 17.1468 67.5 17.8744 67.5 19.2893C67.5 20.7446 68.5657 22.119 68.7297 22.3212C68.8936 22.5233 70.7792 25.5551 73.8124 26.7274C76.3128 27.6976 76.8456 27.4955 77.3785 27.4551C77.9114 27.4147 79.1411 26.7274 79.387 26.0806C79.6329 25.3934 79.633 24.8275 79.551 24.7062C79.469 24.5849 79.264 24.5041 78.9771 24.3828C78.6902 24.2615 77.2146 23.5339 76.9686 23.4126C76.6817 23.3318 76.5177 23.2509 76.3128 23.5743C76.1078 23.8573 75.534 24.5445 75.37 24.7062C75.2061 24.9083 75.0421 24.9083 74.7142 24.7871C74.4273 24.6254 73.4435 24.3424 72.3368 23.3318C71.435 22.5637 70.8612 21.5935 70.6972 21.3105C70.5332 21.0276 70.6972 20.8659 70.8202 20.7042C70.9431 20.5829 71.1071 20.3808 71.2711 20.1786C71.435 20.0169 71.476 19.8957 71.558 19.6935C71.64 19.4914 71.599 19.3297 71.517 19.168C71.353 19.0468 70.7792 17.6319 70.5332 17.0255Z" fill="white" />
  <path fill-rule="evenodd" clip-rule="evenodd" d="M13.3062 21.8879C18.4064 19.6299 21.8074 18.1413 23.5091 17.4221C28.3677 15.3686 29.3773 15.0119 30.0354 15.0001C30.1801 14.9975 30.5037 15.034 30.7133 15.2068C30.8903 15.3528 30.939 15.5499 30.9623 15.6883C30.9856 15.8266 31.0146 16.1418 30.9916 16.3881C30.7283 19.1992 29.589 26.021 29.0094 29.1694C28.7642 30.5017 28.2813 30.9484 27.8138 30.9921C26.7978 31.0871 26.0263 30.3098 25.0422 29.6543C23.5024 28.6287 22.6325 27.9902 21.1378 26.9893C19.4105 25.8327 20.5303 25.1969 21.5147 24.158C21.7723 23.8861 26.2488 19.7487 26.3354 19.3733C26.3463 19.3264 26.3563 19.1514 26.254 19.059C26.1517 18.9666 26.0007 18.9982 25.8918 19.0234C25.7373 19.059 23.2775 20.7111 18.5121 23.9798C17.8139 24.467 17.1815 24.7044 16.6148 24.6919C15.9901 24.6782 14.7885 24.333 13.8952 24.038C12.7996 23.6761 11.9288 23.4847 12.0046 22.8701C12.0441 22.55 12.4779 22.2226 13.3062 21.8879Z" fill="white" />
</svg>