<svg width="152" height="28" viewBox="0 0 152 28" fill="none" xmlns="http://www.w3.org/2000/svg">
  <g clip-path="url(#clip0_496_74)">
    <path d="M78.4201 0.103482L89.3433 0.053772C91.9633 0.054041 94.4759 1.07946 96.3285 2.90451C98.1811 4.72957 99.222 7.20479 99.2223 9.7858V18.1736C99.2223 19.4516 98.9667 20.7171 98.4703 21.8978C97.9738 23.0784 97.2461 24.1512 96.3287 25.0549C95.4114 25.9585 94.3223 26.6752 93.1237 27.1642C91.9252 27.6532 90.6406 27.9048 89.3433 27.9046H78.4829C77.1857 27.9047 75.9012 27.6531 74.7027 27.1641C73.5042 26.6751 72.4151 25.9584 71.4978 25.0548C70.5806 24.1511 69.853 23.0783 69.3567 21.8977C68.8603 20.717 68.6049 19.4516 68.605 18.1736V9.7858C68.605 4.41 72.9642 0.103482 78.4201 0.103482Z" fill="#FDBC2F" />
    <path d="M81.0729 15.8007V15.3279H78.1823V13.2239H83.8174V15.7266C83.8174 19.6659 81.9081 21.9546 78.2945 21.9546C74.5697 21.9546 72.405 19.0633 72.405 13.9655C72.405 8.99447 74.7674 5.95099 79.0988 5.95099C80.7362 5.95099 82.147 6.37809 82.9184 6.93403V9.09997C81.8102 8.42349 80.5343 8.0609 79.2306 8.052C76.3894 8.052 75.1855 9.95215 75.1855 13.9655C75.1855 17.8581 76.1824 19.8495 78.346 19.8495C80.4139 19.8597 81.0729 18.2842 81.0729 15.8007ZM95.5057 16.0969C95.5057 19.879 93.4358 21.9637 90.4597 21.9637C87.4835 21.9637 85.4136 19.879 85.4136 16.1253C85.4136 12.3433 87.4825 10.2585 90.4597 10.2585C93.4368 10.2585 95.5057 12.3342 95.5057 16.0969ZM92.7119 16.0969C92.7119 13.5019 91.9591 12.3626 90.4638 12.3626C88.9685 12.3626 88.2147 13.5019 88.2147 16.1253C88.2147 18.7204 88.9675 19.8607 90.4638 19.8607C91.9601 19.8607 92.7119 18.7113 92.7119 16.0969Z" fill="#191919" />
    <path d="M7.75241 8.28436H6.51664C4.27165 8.28436 3.08943 9.40537 3.08943 11.0651C3.08943 12.946 3.9071 13.8174 5.59187 14.9384L6.97491 15.8565L2.97615 21.7406H0L3.58477 16.4764C1.51485 15.0226 0.357344 13.6135 0.357344 11.2132C0.357344 8.2103 2.47154 6.1803 6.4878 6.1803H10.4855V21.7416H7.74314V8.28436H7.75241ZM21.7898 10.4807V21.7416H19.0896V17.0425H15.476V21.7416H12.7758V10.4807H15.476V14.9384H19.0896V10.4807H21.7898ZM33.992 24.3093H31.4895V21.7325H25.4209V24.3093H22.9184V19.6335H23.7649C24.7154 17.7526 24.9039 14.1928 24.9039 11.4404V10.4767H32.7871V19.6335H33.992V24.3093ZM30.0869 12.5848H27.2272V12.9186C27.2272 14.8644 27.0212 17.9322 26.2674 19.6375H30.0869V12.5848ZM40.0596 21.9546C36.6077 21.9546 34.65 20.0545 34.65 16.1345C34.65 12.7329 36.2215 10.2504 39.5149 10.2504C42.215 10.2504 43.9647 11.7326 43.9647 15.6445V17.0526H37.4449C37.5572 18.9345 38.31 19.8516 40.2862 19.8516C41.6033 19.8516 43.0141 19.3606 43.8514 18.7955V20.9726C43.0615 21.5103 41.7907 21.9546 40.0596 21.9546ZM37.4449 15.0875H41.2171V14.8654C41.2171 13.4573 40.8052 12.3636 39.4664 12.3636C38.1782 12.3535 37.5201 13.298 37.4449 15.0875ZM48.4896 16.2086V21.7416H45.7802V10.4807H48.4896V15.6709L52.3144 10.4807H55.0434L51.2238 15.6709L55.5603 21.7325H52.4884L48.4896 16.2086ZM55.4048 16.1162C55.4048 12.6862 57.2018 10.2494 60.6569 10.2494C61.9956 10.2494 62.9997 10.4716 63.564 10.7871V13.0484C63.0182 12.7146 61.9925 12.3535 60.9483 12.3535C59.1791 12.3535 58.2008 13.6044 58.2008 16.0513C58.2008 18.3775 59.0009 19.8607 60.9298 19.8607C62.0677 19.8607 62.8864 19.5726 63.564 19.0999V21.2688C62.9049 21.7416 62.0193 21.9638 60.7691 21.9638C57.1545 21.9546 55.4038 19.879 55.4038 16.1162H55.4048ZM103.009 6.1803H113.259V8.28436H109.508V21.7406H106.758V8.28436H103.009V6.1803ZM121.008 18.9862C121.008 19.9041 121.053 20.8222 121.144 21.7406H118.507C118.399 21.4521 118.33 21.151 118.302 20.8448H118.188C117.665 21.3825 116.983 21.8968 115.392 21.8968C113.302 21.8968 111.891 20.6206 111.891 18.337C111.891 16.0533 113.731 14.7102 117.864 14.7102H118.295V14.0832C118.295 12.8749 117.704 12.4265 116.409 12.4265C115.023 12.4265 113.432 13.0088 112.701 13.5425V11.3299C113.932 10.6454 115.322 10.2904 116.735 10.3002C119.599 10.3002 121.008 11.3299 121.008 14.0609V18.9862ZM118.304 16.4794H117.913C115.595 16.4794 114.663 16.9491 114.663 18.27C114.663 19.2774 115.232 19.949 116.368 19.949C117.322 19.949 117.959 19.5432 118.299 19.0542L118.304 16.4794ZM125.893 16.2106V21.7406H123.189V10.4797H125.893V15.677L129.712 10.4828H132.439L128.623 15.677L132.964 21.7446H129.895L125.893 16.2106ZM132.846 16.1213C132.846 12.6954 134.64 10.2555 138.098 10.2555C139.436 10.2555 140.438 10.4787 141.007 10.7922V13.0535C140.461 12.7177 139.438 12.3596 138.393 12.3596C136.62 12.3596 135.643 13.6135 135.643 16.0533C135.643 18.3867 136.439 19.8597 138.37 19.8597C139.503 19.8597 140.327 19.5686 141.007 19.0988V21.2699C140.348 21.7406 139.462 21.9648 138.211 21.9648C134.596 21.9668 132.846 19.882 132.846 16.1213ZM145.461 10.4787V17.4422L149.642 10.4787H151.984V21.7396H149.347V14.7771L145.165 21.7406H142.824V10.4797L145.461 10.4787Z" fill="white" />
  </g>
  <defs>
    <clipPath id="clip0_496_74">
      <rect width="152" height="28" fill="white" />
    </clipPath>
  </defs>
</svg>