<svg width="18" height="16" viewBox="0 0 18 16" fill="none" xmlns="http://www.w3.org/2000/svg">
  <path d="M16 2C14.7573 2 15.5032 0.259322 15.5032 1.502C15.5032 2.33427 14.3313 2.80922 15.0032 3.19847V7.002H11.0032H10.0032V3.19847C10.2151 3.07562 9.84229 2.6847 10.0032 2.502C10.3521 2.10555 9.75138 1.8217 9.75138 1.252C9.75138 0.00932211 10.2427 1.502 9 1.502C7.75733 1.502 8.00316 0.259322 8.00316 1.502C8.00316 2.33427 7.33131 2.80922 8.00316 3.19847V7.002H3.00316L3 3.002C3.93296 2.80552 3.00316 1.83427 3.00316 1.002C3.00316 -0.240678 3.56875 1.252 2.32608 1.252C1.0834 1.252 1.50316 0.00932211 1.50316 1.252C1.50316 2.08427 0.456311 2.80922 1.12816 3.19847V12.8053C0.456311 13.1945 1.2938 13.9197 1.2938 14.752C1.2938 15.9947 0.760486 15.2945 2.00316 15.2945C3.24584 15.2945 2.50316 16.0846 2.50316 14.8419C2.50316 14.0096 3.9576 13.0022 3.00316 12.8055V9.002H8.00316V12.8055C7.33131 13.1948 8.65346 13.9197 8.65346 14.752C8.65346 15.9947 7.41079 15.2945 8.65346 15.2945C9.89614 15.2945 8.65193 16.0846 8.65193 14.8419C8.65193 14.2722 11.0396 13.6637 10.6907 13.2672C10.5298 13.0845 10.2151 12.9284 10.0032 12.8055V9.002H10.6907H16.0032C16.6244 9.002 17.0032 8.62322 17.0032 8.002V3.19847C17.675 2.80922 16.0032 2.08427 16.0032 1.252C16.0032 0.00932211 17.2427 2 16 2Z" fill="white" />
  <circle cx="2" cy="2" r="2" fill="white" />
  <circle cx="2" cy="14" r="2" fill="white" />
  <circle cx="9" cy="2" r="2" fill="white" />
  <circle cx="9" cy="14" r="2" fill="white" />
  <circle cx="16" cy="2" r="2" fill="white" />
</svg>