<svg width="12" height="25" viewBox="0 0 12 25" fill="none" xmlns="http://www.w3.org/2000/svg">
  <path fill-rule="evenodd" clip-rule="evenodd" d="M5.99936 18.9681C4.6959 18.9681 3.64048 19.9926 3.64048 21.2551C3.64048 22.5238 4.70235 23.5421 5.99936 23.5421C7.29636 23.5421 8.35824 22.5238 8.35824 21.2551C8.35824 19.9926 7.30281 18.9681 5.99936 18.9681ZM1.88997 9.66334H0.444408C0.198959 9.66334 0 9.47046 0 9.23247V6H12L11.9984 9.23376C11.9984 9.47173 11.7995 9.66462 11.554 9.66462H10.1085C9.98317 9.66462 9.87466 9.61953 9.7881 9.53186L8.87866 8.61255C8.71459 8.44722 8.52857 8.47978 8.28698 8.47978V18.2379C8.79079 18.5973 9.20159 19.0733 9.47807 19.6244H10.5348C10.7789 19.6244 10.9792 19.8172 10.9792 20.0552V22.455C10.9792 22.6929 10.7802 22.8858 10.5348 22.8858H9.47807C8.85154 24.137 7.5287 25 5.99901 25C4.46932 25 3.14794 24.1371 2.5226 22.8871H1.46588C1.22173 22.8871 1.02148 22.6942 1.02148 22.4562V20.0565C1.02148 19.8198 1.22171 19.6256 1.46588 19.6256H2.5226C2.79776 19.0745 3.20856 18.5986 3.71368 18.2392L3.71239 8.47978C3.47081 8.47978 3.28478 8.44722 3.12072 8.61255L2.21127 9.53186C2.12471 9.61953 2.01657 9.66334 1.88997 9.66334ZM0 5V4H11.9984L12 5H0ZM0 3L3.33786e-05 2.39911H12V3H0ZM3.33786e-05 2.39911V2.30643C3.33786e-05 1.81673 0.259692 1.39715 0.705369 1.16668C3.71016 -0.388894 8.28984 -0.388894 11.2947 1.16668C11.7404 1.39714 12 1.8167 12 2.30643V2.39911H3.33786e-05Z" fill="white" />
</svg>