<svg width="914" height="725" viewBox="0 0 914 725" fill="none" xmlns="http://www.w3.org/2000/svg">
  <path d="M0 32C0 14.3269 14.3269 0 32 0H882C899.673 0 914 14.3269 914 32V693C914 710.673 899.673 725 882 725H32C14.3269 725 0 710.673 0 693V32Z" fill="#0E0E11" />
  <mask id="mask0_637_672" style="mask-type:alpha" maskUnits="userSpaceOnUse" x="158" y="36" width="756" height="689">
    <path d="M158.017 68C158.017 50.3269 172.344 36 190.017 36H882C899.673 36 914 50.3269 914 68V693C914 710.673 899.673 725 882 725H190.017C172.344 725 158.017 710.673 158.017 693V68Z" fill="#0E0E11" />
  </mask>
  <g mask="url(#mask0_637_672)">
    <g filter="url(#filter0_f_637_672)">
      <path d="M1304.74 797.295C1304.74 934.148 1182.7 1045.09 1032.16 1045.09C881.611 1045.09 627.016 1024.76 627.016 887.903C627.016 751.05 852.758 391.813 1171.19 465.901C1321.73 465.901 1304.74 660.442 1304.74 797.295Z" fill="url(#paint0_linear_637_672)" fill-opacity="0.6" />
    </g>
  </g>
  <defs>
    <filter id="filter0_f_637_672" x="327.016" y="155.945" width="1278.3" height="1189.14" filterUnits="userSpaceOnUse" color-interpolation-filters="sRGB">
      <feFlood flood-opacity="0" result="BackgroundImageFix" />
      <feBlend mode="normal" in="SourceGraphic" in2="BackgroundImageFix" result="shape" />
      <feGaussianBlur stdDeviation="150" result="effect1_foregroundBlur_637_672" />
    </filter>
    <linearGradient id="paint0_linear_637_672" x1="966.166" y1="455.945" x2="966.166" y2="1045.09" gradientUnits="userSpaceOnUse">
      <stop stop-color="#FFDC50" />
      <stop offset="1" stop-color="#FDBC2F" />
    </linearGradient>
  </defs>
</svg>