<svg width="20" height="18" viewBox="0 0 20 18" fill="none" xmlns="http://www.w3.org/2000/svg">
  <path d="M15.0576 4.00195C17.1959 4.01548 18.3595 4.11734 19.1211 4.87891C19.9998 5.75759 20 7.17157 20 10V12C20 14.8284 19.9998 16.2424 19.1211 17.1211C18.2424 17.9998 16.8284 18 14 18H6C3.17157 18 1.75759 17.9998 0.878906 17.1211C0.000226796 16.2424 0 14.8284 0 12V7.75H10.4375C10.7084 7.74688 10.9905 7.7271 11.2559 7.61719C11.521 7.50732 11.7341 7.32205 11.9277 7.13281L15.0576 4.00195ZM6.52832 0C7.73083 4.78699e-09 8.33219 0.000167545 8.81543 0.298828C9.29865 0.597518 9.56765 1.13531 10.1055 2.21094L10.4473 2.89453C10.7162 3.43238 10.8511 3.70125 11.0928 3.85059C11.3344 3.99974 11.6352 4 12.2363 4H12.9395L11.0557 5.88379C10.9034 6.03601 10.8177 6.12072 10.749 6.17969C10.7184 6.20596 10.7 6.21929 10.6904 6.22559C10.6861 6.22844 10.6836 6.22997 10.6826 6.23047L10.6816 6.23145H10.6797C10.6784 6.23183 10.6756 6.23242 10.6709 6.2334C10.6597 6.23574 10.6378 6.23913 10.5977 6.24219C10.5074 6.24905 10.387 6.25 10.1719 6.25H0V4C0 2.11438 0.000151038 1.17172 0.585938 0.585938C1.17172 0.000151038 2.11438 0 4 0H6.52832Z" fill="#FDBC2F" />
</svg>