<svg viewBox="0 0 40 40" fill="none" xmlns="http://www.w3.org/2000/svg">
  <!-- Переместили центр круга с 66 на 20 -->
  <circle cx="20" cy="20" r="19.5" stroke="white" stroke-opacity="0.1" />
  
  <!-- Обернули пути в группу <g> и сместили их влево на 46 единиц, чтобы они встали ровно в круг -->
  <g transform="translate(-46, 0)">
    <path d="M55.0755 19.906C55.0755 21.8239 55.566 23.7043 56.5472 25.359L55 31L60.8113 29.4957C62.3962 30.3607 64.2075 30.812 66.0566 30.812C72.0943 30.812 77 25.9231 77 19.906C77 17.0103 75.8679 14.265 73.7925 12.1966C71.717 10.1282 69 9 66.0566 9C59.9811 9.03761 55.0755 13.9265 55.0755 19.906ZM58.5472 25.0957L58.3208 24.7573C57.4151 23.3282 56.9245 21.6359 56.9245 19.9436C56.9245 14.9419 61 10.8803 66.0189 10.8803C68.434 10.8803 70.7358 11.8205 72.434 13.5504C74.1321 15.2803 75.1132 17.5368 75.1132 19.9436C75.1132 24.9453 71.0377 29.0068 66.0189 29.0068C64.3962 29.0068 62.7736 28.5556 61.3774 27.7282L61.0377 27.5402L57.6038 28.4427L58.5472 25.0957Z" fill="white" />
    <path d="M63.5332 15.0255C63.3283 14.5404 63.0824 14.5404 62.8774 14.5C62.7134 14.5 62.5085 14.5 62.3035 14.5C62.0986 14.5 61.7707 14.5808 61.5247 14.8638C61.2378 15.1468 60.5 15.8744 60.5 17.2893C60.5 18.7446 61.5657 20.119 61.7297 20.3212C61.8936 20.5233 63.7792 23.5551 66.8124 24.7274C69.3128 25.6976 69.8456 25.4955 70.3785 25.4551C70.9114 25.4147 72.1411 24.7274 72.387 24.0806C72.6329 23.3934 72.633 22.8275 72.551 22.7062C72.469 22.5849 72.264 22.5041 71.9771 22.3828C71.6902 22.2615 70.2146 21.5339 69.9686 21.4126C69.6817 21.3318 69.5177 21.2509 69.3128 21.5743C69.1078 21.8573 68.534 22.5445 68.37 22.7062C68.2061 22.9083 68.0421 22.9083 67.7142 22.7871C67.4273 22.6254 66.4435 22.3424 65.3368 21.3318C64.435 20.5637 63.8612 19.5935 63.6972 19.3105C63.5332 19.0276 63.6972 18.8659 63.8202 18.7042C63.9431 18.5829 64.1071 18.3808 64.2711 18.1786C64.435 18.0169 64.476 17.8957 64.558 17.6935C64.64 17.4914 64.599 17.3297 64.517 17.168C64.353 17.0468 63.7792 15.6319 63.5332 15.0255Z" fill="white" />  
  </g>
</svg>
